<?xml version="1.0" encoding="iso-8859-1"?>
<!-- Generator: Adobe Illustrator 19.0.0, SVG Export Plug-In . SVG Version: 6.00 Build 0)  -->
<svg version="1.1" id="Layer_1" xmlns="http://www.w3.org/2000/svg" xmlns:xlink="http://www.w3.org/1999/xlink" x="0px" y="0px"
	 viewBox="0 0 512 512" style="enable-background:new 0 0 512 512;" xml:space="preserve">
<polygon style="fill:#2BA5F7;" points="368.386,9.154 480.773,203.814 368.386,398.472 143.613,398.472 31.227,203.814 
	143.613,9.154 "/>
<circle style="fill:#666666;" cx="364.158" cy="217.268" r="34.785"/>
<circle style="fill:#F7B239;" cx="326.322" cy="321.623" r="34.785"/>
<circle style="fill:#F95428;" cx="322.05" cy="78.615" r="34.785"/>
<circle style="fill:#9AD14B;" cx="228.63" cy="272.131" r="34.785"/>
<g>
	<circle style="fill:#F95428;" cx="218.927" cy="343.593" r="34.785"/>
	<circle style="fill:#F95428;" cx="174.829" cy="224.334" r="34.785"/>
</g>
<circle style="fill:#F7B239;" cx="159.316" cy="296.273" r="34.785"/>
<circle style="fill:#9AD14B;" cx="102.622" cy="209.529" r="34.785"/>
<g>
	<path style="fill:#333333;" d="M488.701,199.237L376.314,4.577C374.678,1.745,371.657,0,368.386,0H143.613
		c-3.271,0-6.292,1.745-7.927,4.577L23.299,199.237c-1.636,2.832-1.636,6.322,0,9.154l109.743,190.081l-57.618,99.796
		c-2.528,4.378-1.028,9.977,3.35,12.504c4.377,2.528,9.975,1.028,12.504-3.35l57.618-99.796h214.205l57.618,99.796
		c1.695,2.937,4.772,4.578,7.936,4.578c1.553,0,3.127-0.395,4.568-1.228c4.378-2.528,5.878-8.126,3.35-12.504l-57.618-99.796
		l109.743-190.081C490.336,205.559,490.336,202.068,488.701,199.237z M159.467,389.318l17.999-31.176
		c6.018,17.1,22.322,29.393,41.454,29.393c24.229,0,43.939-19.71,43.939-43.939c0-12.79-5.496-24.317-14.246-32.354
		c14.205-7.288,23.954-22.078,23.954-39.111c0-16.696-9.362-31.244-23.11-38.679l6.542-11.33l39.431,68.296
		c-8.051,7.969-13.048,19.016-13.048,31.212c0,24.229,19.71,43.939,43.939,43.939c4.013,0,7.898-0.552,11.594-1.564l14.616,25.314
		H159.467V389.318z M254.26,272.129c0,14.134-11.497,25.631-25.631,25.631c-5.13,0-9.901-1.529-13.913-4.135l25.573-44.293
		C248.57,253.586,254.26,262.198,254.26,272.129z M218.921,317.964c14.134,0,25.631,11.497,25.631,25.631
		c0,14.134-11.497,25.631-25.631,25.631s-25.631-11.497-25.631-25.631C193.29,329.462,204.787,317.964,218.921,317.964z
		 M203.411,276.589c-0.256-1.451-0.415-2.935-0.415-4.459c0-11.057,7.05-20.472,16.88-24.06L203.411,276.589z M174.824,249.972
		c-14.134,0-25.631-11.497-25.631-25.631s11.497-25.631,25.631-25.631s25.631,11.497,25.631,25.631S188.958,249.972,174.824,249.972
		z M159.317,270.642c14.134,0,25.631,11.497,25.631,25.631c0,14.134-11.497,25.631-25.631,25.631s-25.631-11.497-25.631-25.631
		C133.686,282.139,145.185,270.642,159.317,270.642z M344.812,339.332l-24.58-42.574c1.957-0.48,3.989-0.762,6.089-0.762
		c14.134,0,25.631,11.497,25.631,25.631C351.953,328.495,349.224,334.726,344.812,339.332z M305.135,307.226l23.06,39.938
		c-0.62,0.045-1.24,0.095-1.872,0.095c-14.134,0-25.631-11.497-25.631-25.631C300.691,316.292,302.333,311.334,305.135,307.226z
		 M368.386,380.164l-14.197-24.59c9.806-8.065,16.072-20.287,16.072-33.946c0-24.229-19.71-43.939-43.939-43.939
		c-5.444,0-10.656,1.002-15.471,2.821l-46.923-81.273c-1.636-2.832-4.656-4.577-7.927-4.577c-3.271,0-6.292,1.745-7.927,4.577
		l-16.769,29.044c-0.886-0.054-1.776-0.089-2.675-0.089c-3.499,0-6.9,0.424-10.165,1.2c0.19-1.659,0.299-3.342,0.299-5.051
		c0-24.229-19.71-43.939-43.939-43.939c-12.237,0-23.317,5.033-31.292,13.133c-6.413-16.334-22.326-27.936-40.909-27.936
		c-24.229,0-43.939,19.71-43.939,43.939s19.71,43.939,43.939,43.939c12.237,0,23.317-5.033,31.292-13.133
		c2.206,5.619,5.529,10.68,9.707,14.898c-16.498,6.332-28.244,22.331-28.244,41.031c0,24.229,19.71,43.939,43.939,43.939
		c2.651,0,5.243-0.249,7.765-0.701l-23.471,40.652L41.797,203.814L148.897,18.308h214.204l107.102,185.506L368.386,380.164z
		 M128.255,209.538c0,14.134-11.497,25.631-25.631,25.631s-25.631-11.497-25.631-25.631s11.497-25.631,25.631-25.631
		S128.255,195.404,128.255,209.538z"/>
	<path style="fill:#333333;" d="M320.219,217.276c0,24.229,19.71,43.939,43.939,43.939c24.229,0,43.939-19.71,43.939-43.939
		s-19.71-43.939-43.939-43.939C339.93,173.337,320.219,193.048,320.219,217.276z M389.79,217.276
		c0,14.134-11.497,25.631-25.631,25.631c-14.134,0-25.631-11.497-25.631-25.631c0-14.134,11.497-25.631,25.631-25.631
		C378.292,191.645,389.79,203.143,389.79,217.276z"/>
	<path style="fill:#333333;" d="M322.052,34.684c-24.229,0-43.939,19.71-43.939,43.939s19.71,43.939,43.939,43.939
		c24.229,0,43.939-19.71,43.939-43.939S346.28,34.684,322.052,34.684z M322.052,104.254c-14.134,0-25.631-11.497-25.631-25.631
		s11.497-25.631,25.631-25.631c14.134,0,25.631,11.497,25.631,25.631S336.185,104.254,322.052,104.254z"/>
</g>
<g>
	<path style="fill:#FFFFFF;" d="M428.427,183.316c-3.164,0-6.241-1.642-7.936-4.578L342.842,44.244
		c-2.528-4.378-1.028-9.977,3.35-12.504c4.377-2.528,9.975-1.028,12.504,3.35l77.649,134.492c2.528,4.378,1.028,9.977-3.35,12.504
		C431.554,182.92,429.979,183.316,428.427,183.316z"/>
	<circle style="fill:#FFFFFF;" cx="445.544" cy="203.805" r="9.154"/>
</g>
<g>
</g>
<g>
</g>
<g>
</g>
<g>
</g>
<g>
</g>
<g>
</g>
<g>
</g>
<g>
</g>
<g>
</g>
<g>
</g>
<g>
</g>
<g>
</g>
<g>
</g>
<g>
</g>
<g>
</g>
</svg>
